          <svg
            class="w-4 h-4 me-2 text-white-400 group-hover:text-white-500 dark:text-white-500 dark:group-hover:text-white-300"
            aria-hidden="true" xmlns="http://www.w3.org/2000/svg" viewBox="0 0 448 512">
            <path
              d="M160 80c0-26.5 21.5-48 48-48h32c26.5 0 48 21.5 48 48V432c0 26.5-21.5 48-48 48H208c-26.5 0-48-21.5-48-48V80zM0 272c0-26.5 21.5-48 48-48H80c26.5 0 48 21.5 48 48V432c0 26.5-21.5 48-48 48H48c-26.5 0-48-21.5-48-48V272zM368 96h32c26.5 0 48 21.5 48 48V432c0 26.5-21.5 48-48 48H368c-26.5 0-48-21.5-48-48V144c0-26.5 21.5-48 48-48z" />
          </svg>